<svg width="145" height="75" viewBox="0 0 145 75" fill="none" xmlns="http://www.w3.org/2000/svg">
<rect x="0.03125" y="1.25" width="144" height="25" transform="rotate(0.0532014 0.03125 1.25)" fill="#8892ED"/>
<rect width="144" height="5" fill="#C8F2FF"/>
<path d="M8.5 75L1.13879 26.25L15.8612 26.25L8.5 75Z" fill="white"/>
<path d="M22.5 75L15.1388 26.25L29.8612 26.25L22.5 75Z" fill="white"/>
<path d="M36.5 75L29.1388 26.25L43.8612 26.25L36.5 75Z" fill="white"/>
<path d="M50.5 75L43.1388 26.25L57.8612 26.25L50.5 75Z" fill="white"/>
<path d="M65 75L58.0718 26.25L71.9282 26.25L65 75Z" fill="white"/>
<path d="M79 75L72.0718 26.25L85.9282 26.25L79 75Z" fill="white"/>
<path d="M93.5 75L86.1388 26.25L100.861 26.25L93.5 75Z" fill="white"/>
<path d="M107.5 75L100.139 26.25L114.861 26.25L107.5 75Z" fill="white"/>
<path d="M121.5 75L114.139 26.25L128.861 26.25L121.5 75Z" fill="white"/>
<path d="M135.5 75L128.139 26.25L142.861 26.25L135.5 75Z" fill="white"/>
</svg>
