<svg width="152" height="53" viewBox="0 0 152 53" fill="none" xmlns="http://www.w3.org/2000/svg">
<rect x="4.03125" y="7.25" width="144" height="25" transform="rotate(0.0532014 4.03125 7.25)" fill="#FFC66A"/>
<g filter="url(#filter0_i_441_698)">
<path d="M4 32H148C148 32 138.5 57 133.5 48.5C128.5 40 112 38 111.5 48.5C111 59 78 36 71 48.5C64 61 47.5 37.5 42.5 44C37.5 50.5 20.5 40.5 17.5 48.5C14.5 56.5 5 33 5 33L4 32Z" fill="#2E7123"/>
</g>
<g filter="url(#filter1_f_441_698)">
<rect x="4" y="4" width="144" height="5" fill="#F9DD6B"/>
</g>
<defs>
<filter id="filter0_i_441_698" x="4" y="32" width="144" height="24.2261" filterUnits="userSpaceOnUse" color-interpolation-filters="sRGB">
<feFlood flood-opacity="0" result="BackgroundImageFix"/>
<feBlend mode="normal" in="SourceGraphic" in2="BackgroundImageFix" result="shape"/>
<feColorMatrix in="SourceAlpha" type="matrix" values="0 0 0 0 0 0 0 0 0 0 0 0 0 0 0 0 0 0 127 0" result="hardAlpha"/>
<feOffset dy="4"/>
<feGaussianBlur stdDeviation="2"/>
<feComposite in2="hardAlpha" operator="arithmetic" k2="-1" k3="1"/>
<feColorMatrix type="matrix" values="0 0 0 0 0 0 0 0 0 0 0 0 0 0 0 0 0 0 0.25 0"/>
<feBlend mode="normal" in2="shape" result="effect1_innerShadow_441_698"/>
</filter>
<filter id="filter1_f_441_698" x="0.7" y="0.7" width="150.6" height="11.6" filterUnits="userSpaceOnUse" color-interpolation-filters="sRGB">
<feFlood flood-opacity="0" result="BackgroundImageFix"/>
<feBlend mode="normal" in="SourceGraphic" in2="BackgroundImageFix" result="shape"/>
<feGaussianBlur stdDeviation="1.65" result="effect1_foregroundBlur_441_698"/>
</filter>
</defs>
</svg>
