<svg width="154" height="82" viewBox="0 0 154 82" fill="none" xmlns="http://www.w3.org/2000/svg">
<rect width="145.998" height="24.6835" transform="matrix(1 0.000904238 -0.000953496 1 4.03174 7.20898)" fill="#FFC66A"/>
<g filter="url(#filter0_i_441_698)">
<path d="M4 31.6455H149.998C149.998 31.6455 140.367 93.8843 135.297 72.7231C130.228 51.5619 113.499 46.5828 112.992 72.7231C112.485 98.8634 79.0269 41.6037 71.9298 72.7231C64.8327 103.843 48.1037 45.338 43.0343 61.5201C37.9649 77.7022 20.729 52.8067 17.6873 72.7231C14.6457 92.6395 5.01388 34.1351 5.01388 34.1351L4 31.6455Z" fill="#2E7123"/>
</g>
<g filter="url(#filter1_f_441_698)">
<rect x="4" y="4" width="145.998" height="4.93671" fill="#F9DD6B"/>
</g>
<defs>
<filter id="filter0_i_441_698" x="4" y="31.6455" width="145.999" height="54.3545" filterUnits="userSpaceOnUse" color-interpolation-filters="sRGB">
<feFlood flood-opacity="0" result="BackgroundImageFix"/>
<feBlend mode="normal" in="SourceGraphic" in2="BackgroundImageFix" result="shape"/>
<feColorMatrix in="SourceAlpha" type="matrix" values="0 0 0 0 0 0 0 0 0 0 0 0 0 0 0 0 0 0 127 0" result="hardAlpha"/>
<feOffset dy="4"/>
<feGaussianBlur stdDeviation="2"/>
<feComposite in2="hardAlpha" operator="arithmetic" k2="-1" k3="1"/>
<feColorMatrix type="matrix" values="0 0 0 0 0 0 0 0 0 0 0 0 0 0 0 0 0 0 0.25 0"/>
<feBlend mode="normal" in2="shape" result="effect1_innerShadow_441_698"/>
</filter>
<filter id="filter1_f_441_698" x="0.7" y="0.7" width="152.599" height="11.5365" filterUnits="userSpaceOnUse" color-interpolation-filters="sRGB">
<feFlood flood-opacity="0" result="BackgroundImageFix"/>
<feBlend mode="normal" in="SourceGraphic" in2="BackgroundImageFix" result="shape"/>
<feGaussianBlur stdDeviation="1.65" result="effect1_foregroundBlur_441_698"/>
</filter>
</defs>
</svg>
